<?xml version="1.0" standalone="no"?>
<!DOCTYPE svg PUBLIC "-//W3C//DTD SVG 20010904//EN"
 "http://www.w3.org/TR/2001/REC-SVG-20010904/DTD/svg10.dtd">
<svg version="1.0" xmlns="http://www.w3.org/2000/svg"
 width="76.000000pt" height="64.000000pt" viewBox="0 0 76.000000 64.000000"
 preserveAspectRatio="xMidYMid meet">

<g transform="translate(0.000000,64.000000) scale(0.100000,-0.100000)"
fill="#000000" stroke="none">
<path d="M266 616 c-53 -20 -84 -44 -124 -97 -19 -24 -47 -50 -63 -57 -29 -12
-29 -13 -29 -91 l0 -79 32 -11 c21 -7 42 -26 58 -51 13 -22 28 -40 32 -40 4 0
8 -7 8 -15 0 -9 -9 -15 -24 -15 -20 0 -27 -8 -39 -45 l-16 -45 249 0 249 0
-16 45 c-12 37 -19 45 -40 45 -28 0 -28 0 12 63 20 30 41 50 63 57 l32 12 0
79 0 80 -35 15 c-19 8 -35 19 -35 24 0 19 -74 92 -114 112 -52 27 -148 33
-200 14z m154 -76 c0 -18 -7 -20 -70 -20 -63 0 -70 2 -70 20 0 18 7 20 70 20
63 0 70 -2 70 -20z m67 -72 c21 -19 23 -31 23 -107 0 -73 -3 -88 -22 -108 -20
-21 -29 -23 -132 -23 -106 0 -111 1 -138 27 -26 25 -28 32 -28 107 0 68 3 83
22 103 20 21 29 23 137 23 104 0 117 -2 138 -22z"/>
</g>
</svg>
